<svg version="1.1" id="Layer_1" xmlns="http://www.w3.org/2000/svg" xmlns:xlink="http://www.w3.org/1999/xlink" x="0px" y="0px"
	 width="100%" viewBox="0 0 225 225" enable-background="new 0 0 225 225" xml:space="preserve">
<path fill="#E6E6E6" opacity="1.000000" stroke="none" 
	d="
M1.000000,83.000000 
	C1.000000,55.333340 1.000000,28.166676 1.000000,1.000011 
	C75.999977,1.000007 150.999954,1.000007 225.999954,1.000004 
	C225.999969,75.999969 225.999969,150.999939 225.999985,225.999939 
	C151.000046,225.999954 76.000092,225.999954 1.000068,225.999969 
	C1.000000,178.500000 1.000000,131.000000 1.000000,83.000000 
M37.135902,103.854340 
	C38.064022,110.185638 38.992138,116.516930 39.956013,123.694771 
	C40.627590,130.310852 41.733086,136.921799 41.811424,143.544907 
	C41.860054,147.656082 40.298454,151.793900 43.054043,155.300476 
	C42.738007,155.638443 42.130657,155.993210 42.149029,156.311920 
	C42.504425,162.478546 42.905697,168.643188 43.406605,174.799347 
	C43.440838,175.220062 44.334671,175.570831 45.397125,176.417496 
	C45.309444,177.659561 45.285538,178.910034 45.123394,180.142303 
	C44.277142,186.573547 48.519585,191.231705 54.352028,190.766052 
	C59.887276,192.492508 65.422523,194.218948 71.482147,196.437210 
	C76.723923,197.333344 81.965698,198.229477 87.351723,199.781143 
	C96.013268,202.407654 104.625992,205.223511 113.382568,207.481476 
	C114.910774,207.875549 117.044662,205.920715 119.624245,205.096329 
	C122.660156,207.240768 123.778854,203.632324 126.584862,203.209137 
	C127.229309,203.346680 127.940994,203.735626 128.508087,203.583954 
	C136.658646,201.404022 144.796356,199.174713 152.912445,196.870163 
	C153.540817,196.691727 153.984299,195.862106 155.176132,195.320190 
	C156.870819,195.045685 158.617004,194.946228 160.250961,194.465363 
	C166.264114,192.695770 172.240051,190.799728 179.004745,188.932510 
	C180.013840,187.991287 181.724060,187.168594 181.906815,186.087646 
	C182.583832,182.083618 182.757065,177.994431 183.504395,173.554077 
	C183.670410,173.044067 183.836426,172.534058 183.966034,171.130310 
	C184.300751,164.476089 184.635468,157.821854 184.953232,150.682205 
	C184.953232,150.682205 184.956024,150.196487 185.459549,149.505569 
	C185.973740,143.488464 186.550659,137.475769 186.975662,131.452377 
	C187.188217,128.440002 187.123444,125.408073 187.090302,121.610878 
	C186.906998,120.320190 186.113602,118.296242 186.639862,117.858376 
	C189.936462,115.115524 188.082245,111.896408 188.165466,108.727509 
	C188.305939,103.377083 187.620377,97.839134 190.629883,92.196815 
	C191.089096,85.414711 191.548294,78.632614 192.028992,71.340561 
	C192.046722,71.171349 192.064438,71.002144 192.595490,70.238541 
	C193.096542,63.473541 193.597610,56.708546 194.556259,49.322559 
	C193.467010,42.839268 196.251770,36.295773 194.256485,29.777237 
	C194.046875,29.092415 195.419128,27.923391 196.566162,26.408516 
	C197.292435,20.435793 196.958206,20.003349 191.164047,20.002005 
	C150.268753,19.992512 109.373474,19.999250 68.478188,19.999924 
	C57.173794,20.000109 45.869392,20.003317 34.565010,19.992279 
	C31.048954,19.988846 28.820301,20.914640 30.862247,25.944492 
	C31.548824,32.246193 32.235401,38.547894 32.956516,45.726662 
	C33.608097,48.855576 34.259678,51.984489 34.161545,55.214828 
	C34.461784,61.812977 34.762024,68.411125 35.005035,75.926674 
	C35.728989,84.958733 36.452942,93.990784 37.135902,103.854340 
M39.419693,130.317886 
	C39.691711,130.352005 39.963730,130.386124 40.235748,130.420227 
	C40.212261,130.270813 40.210224,130.000763 40.161709,129.992126 
	C39.903717,129.946243 39.634079,129.965897 39.419693,130.317886 
z"/>
<path fill="#F6F8FA" opacity="1.000000" stroke="none" 
	d="
M184.956024,150.196487 
	C184.956024,150.196487 184.953232,150.682205 184.594452,151.014481 
	C183.535019,157.499695 182.769302,163.646896 182.225922,169.813690 
	C182.166061,170.493027 183.379532,171.284546 184.002441,172.024033 
	C183.836426,172.534058 183.670410,173.044067 182.940399,173.909637 
	C181.915344,175.787338 181.426224,177.301651 180.998947,178.833206 
	C180.059372,182.201248 179.151062,185.578049 178.229996,188.951263 
	C172.240051,190.799728 166.264114,192.695770 160.250961,194.465363 
	C158.617004,194.946228 156.870819,195.045685 154.592804,195.209564 
	C144.636948,197.735153 135.264420,200.371353 125.891899,203.007568 
	C123.778854,203.632324 122.660156,207.240768 118.868340,205.006210 
	C113.756706,204.434906 109.344643,204.241653 105.058830,203.403122 
	C99.059082,202.229233 93.153404,200.574585 87.207474,199.125610 
	C81.965698,198.229477 76.723923,197.333344 71.046814,195.891907 
	C65.151047,193.599686 59.690609,191.852783 54.230171,190.105865 
	C48.519585,191.231705 44.277142,186.573547 45.123394,180.142303 
	C45.285538,178.910034 45.309444,177.659561 45.139011,175.746719 
	C44.517715,168.465927 44.154537,161.855896 43.791359,155.245880 
	C40.298454,151.793900 41.860054,147.656082 41.811424,143.544907 
	C41.733086,136.921799 40.627590,130.310852 39.969860,122.823959 
	C39.584629,115.641609 39.185551,109.330078 38.787788,102.603020 
	C38.546558,100.094620 38.282116,98.004021 38.065475,95.908470 
	C37.345383,88.943054 36.642471,81.975868 35.929058,74.548485 
	C35.587181,67.762871 35.249218,61.438137 34.911259,55.113403 
	C34.259678,51.984489 33.608097,48.855576 32.969307,44.839954 
	C32.620502,37.653450 32.258911,31.353649 31.946987,24.634686 
	C33.876942,23.465265 35.755695,22.064127 37.637741,22.059698 
	C88.205025,21.940695 138.772858,22.028357 189.339783,21.848213 
	C193.501724,21.833387 195.483063,23.077492 196.057480,26.979015 
	C195.419128,27.923391 194.046875,29.092415 194.256485,29.777237 
	C196.251770,36.295773 193.467010,42.839268 193.981964,49.833870 
	C192.965836,57.174427 192.523987,64.003677 192.082153,70.832932 
	C192.064438,71.002144 192.046722,71.171349 191.693832,71.830124 
	C190.944687,79.129158 190.530685,85.938622 190.116699,92.748093 
	C187.620377,97.839134 188.305939,103.377083 188.165466,108.727509 
	C188.082245,111.896408 189.936462,115.115524 186.639862,117.858376 
	C186.113602,118.296242 186.906998,120.320190 186.928375,122.309814 
	C186.257080,125.743851 185.431137,128.464127 185.302185,131.217041 
	C185.006271,137.535080 185.050110,143.869003 184.956024,150.196487 
M185.359283,92.718376 
	C187.363953,70.278381 189.368607,47.838379 191.373260,25.398485 
	C139.010498,25.398485 87.455322,25.398485 35.448986,25.398485 
	C35.948914,30.736778 36.438297,35.690342 36.873196,40.648682 
	C40.959480,87.237419 45.057388,133.825180 49.065140,180.420670 
	C49.310837,183.277252 50.101891,184.693192 53.159981,185.511841 
	C70.494156,190.152237 87.792694,194.942123 105.000130,200.030273 
	C110.636719,201.696960 115.830658,201.700912 121.465202,200.044235 
	C138.197418,195.124619 154.990906,190.384583 171.887482,186.072189 
	C176.355103,184.931931 177.552567,182.671585 177.890091,178.679413 
	C180.287170,150.328110 182.785767,121.985397 185.359283,92.718376 
z"/>
<path fill="#CBCCCD" opacity="1.000000" stroke="none" 
	d="
M196.311829,26.693768 
	C195.483063,23.077492 193.501724,21.833387 189.339783,21.848213 
	C138.772858,22.028357 88.205025,21.940695 37.637741,22.059698 
	C35.755695,22.064127 33.876942,23.465265 31.667046,24.616711 
	C31.150101,25.017687 30.962770,25.017471 30.775442,25.017258 
	C28.820301,20.914640 31.048954,19.988846 34.565010,19.992279 
	C45.869392,20.003317 57.173794,20.000109 68.478188,19.999924 
	C109.373474,19.999250 150.268753,19.992512 191.164047,20.002005 
	C196.958206,20.003349 197.292435,20.435793 196.311829,26.693768 
z"/>
<path fill="#A0A0A0" opacity="1.000000" stroke="none" 
	d="
M87.279602,199.453369 
	C93.153404,200.574585 99.059082,202.229233 105.058830,203.403122 
	C109.344643,204.241653 113.756706,204.434906 118.505623,204.983398 
	C117.044662,205.920715 114.910774,207.875549 113.382568,207.481476 
	C104.625992,205.223511 96.013268,202.407654 87.279602,199.453369 
z"/>
<path fill="#A0A1A1" opacity="1.000000" stroke="none" 
	d="
M126.238380,203.108353 
	C135.264420,200.371353 144.636948,197.735153 154.261597,195.217041 
	C153.984299,195.862106 153.540817,196.691727 152.912445,196.870163 
	C144.796356,199.174713 136.658646,201.404022 128.508087,203.583954 
	C127.940994,203.735626 127.229309,203.346680 126.238380,203.108353 
z"/>
<path fill="#B8B8B8" opacity="1.000000" stroke="none" 
	d="
M185.207794,149.851028 
	C185.050110,143.869003 185.006271,137.535080 185.302185,131.217041 
	C185.431137,128.464127 186.257080,125.743851 186.975281,122.696869 
	C187.123444,125.408073 187.188217,128.440002 186.975662,131.452377 
	C186.550659,137.475769 185.973740,143.488464 185.207794,149.851028 
z"/>
<path fill="#BBBCBC" opacity="1.000000" stroke="none" 
	d="
M35.932976,75.009361 
	C36.642471,81.975868 37.345383,88.943054 38.065475,95.908470 
	C38.282116,98.004021 38.546558,100.094620 38.519669,102.600189 
	C37.892456,103.016212 37.534676,103.019524 37.176895,103.022842 
	C36.452942,93.990784 35.728989,84.958733 35.251019,75.467270 
	C35.497002,75.007874 35.932976,75.009361 35.932976,75.009361 
z"/>
<path fill="#C2C2C3" opacity="1.000000" stroke="none" 
	d="
M183.984238,171.577179 
	C183.379532,171.284546 182.166061,170.493027 182.225922,169.813690 
	C182.769302,163.646896 183.535019,157.499695 184.602921,151.257202 
	C184.635468,157.821854 184.300751,164.476089 183.984238,171.577179 
z"/>
<path fill="#A9AAAA" opacity="1.000000" stroke="none" 
	d="
M54.291100,190.435974 
	C59.690609,191.852783 65.151047,193.599686 70.784630,195.645996 
	C65.422523,194.218948 59.887276,192.492508 54.291100,190.435974 
z"/>
<path fill="#BDBEBF" opacity="1.000000" stroke="none" 
	d="
M190.373291,92.472458 
	C190.530685,85.938622 190.944687,79.129158 191.683090,72.085098 
	C191.548294,78.632614 191.089096,85.414711 190.373291,92.472458 
z"/>
<path fill="#C1C2C2" opacity="1.000000" stroke="none" 
	d="
M35.929062,74.548485 
	C35.932976,75.009361 35.497002,75.007874 35.279633,75.008575 
	C34.762024,68.411125 34.461784,61.812977 34.536400,55.164116 
	C35.249218,61.438137 35.587181,67.762871 35.929062,74.548485 
z"/>
<path fill="#B9BABA" opacity="1.000000" stroke="none" 
	d="
M43.422699,155.273178 
	C44.154537,161.855896 44.517715,168.465927 44.854813,175.515045 
	C44.334671,175.570831 43.440838,175.220062 43.406605,174.799347 
	C42.905697,168.643188 42.504425,162.478546 42.149029,156.311920 
	C42.130657,155.993210 42.738007,155.638443 43.422699,155.273178 
z"/>
<path fill="#BFC0C0" opacity="1.000000" stroke="none" 
	d="
M192.338821,70.535736 
	C192.523987,64.003677 192.965836,57.174427 193.753174,50.144363 
	C193.597610,56.708546 193.096542,63.473541 192.338821,70.535736 
z"/>
<path fill="#B6B6B7" opacity="1.000000" stroke="none" 
	d="
M37.156399,103.438591 
	C37.534676,103.019524 37.892456,103.016212 38.518356,103.015717 
	C39.185551,109.330078 39.584629,115.641609 39.951981,122.400681 
	C38.992138,116.516930 38.064022,110.185638 37.156399,103.438591 
z"/>
<path fill="#BBBCBC" opacity="1.000000" stroke="none" 
	d="
M178.617371,188.941895 
	C179.151062,185.578049 180.059372,182.201248 180.998947,178.833206 
	C181.426224,177.301651 181.915344,175.787338 182.747986,174.101227 
	C182.757065,177.994431 182.583832,182.083618 181.906815,186.087646 
	C181.724060,187.168594 180.013840,187.991287 178.617371,188.941895 
z"/>
<path fill="#B3B4B4" opacity="1.000000" stroke="none" 
	d="
M30.818844,25.480875 
	C30.962770,25.017471 31.150101,25.017687 31.617374,25.035877 
	C32.258911,31.353649 32.620502,37.653450 32.952038,44.401421 
	C32.235401,38.547894 31.548824,32.246193 30.818844,25.480875 
z"/>
<path fill="#F6F8FA" opacity="1.000000" stroke="none" 
	d="
M39.394081,130.140381 
	C39.634079,129.965897 39.903717,129.946243 40.161709,129.992126 
	C40.210224,130.000763 40.212261,130.270813 40.235748,130.420227 
	C39.963730,130.386124 39.691711,130.352005 39.394081,130.140381 
z"/>
<path fill="#0C73B8" opacity="1.000000" stroke="none" 
	d="
M185.305664,93.179161 
	C182.785767,121.985397 180.287170,150.328110 177.890091,178.679413 
	C177.552567,182.671585 176.355103,184.931931 171.887482,186.072189 
	C154.990906,190.384583 138.197418,195.124619 121.465202,200.044235 
	C115.830658,201.700912 110.636719,201.696960 105.000130,200.030273 
	C87.792694,194.942123 70.494156,190.152237 53.159981,185.511841 
	C50.101891,184.693192 49.310837,183.277252 49.065140,180.420670 
	C45.057388,133.825180 40.959480,87.237419 36.873196,40.648682 
	C36.438297,35.690342 35.948914,30.736778 35.448986,25.398485 
	C87.455322,25.398485 139.010498,25.398485 191.373260,25.398485 
	C189.368607,47.838379 187.363953,70.278381 185.305664,93.179161 
M111.342789,56.007332 
	C110.885895,56.102768 110.428993,56.198204 109.042526,56.206432 
	C95.042068,56.235558 81.041603,56.264687 66.414169,56.097191 
	C65.897369,56.370094 65.380577,56.642998 64.694328,57.469654 
	C64.764671,57.649410 64.835014,57.829170 64.765694,58.912251 
	C65.249748,64.492950 65.733803,70.073654 66.233696,75.836975 
	C82.139717,75.836975 97.600166,75.836975 112.953354,75.955109 
	C112.953354,75.955109 112.968712,76.113937 113.021599,77.033958 
	C113.002129,83.309120 112.982658,89.584290 112.933983,96.001122 
	C112.933983,96.001122 113.037582,96.102081 112.104073,95.972641 
	C105.397621,96.021240 98.691177,96.069832 91.222588,96.021019 
	C91.045784,97.738655 90.868980,99.456299 90.709320,102.041237 
	C91.041115,105.100182 91.372910,108.159134 91.818611,111.275749 
	C91.818611,111.275749 91.813736,111.403336 91.639336,112.054634 
	C91.776657,112.708763 91.913979,113.362885 91.993591,114.506325 
	C91.993591,114.506325 92.243896,114.930710 92.733185,115.564278 
	C99.136238,115.548500 105.539299,115.532722 112.569176,115.693611 
	C112.782104,115.651321 112.995026,115.609024 113.236740,115.698517 
	C113.236740,115.698517 113.207260,115.830147 113.126892,116.788200 
	C113.131851,126.565605 113.136810,136.343002 112.968384,146.333252 
	C112.968384,146.333252 112.835129,146.573242 112.226250,146.225372 
	C106.458748,144.644958 100.632233,143.242004 94.965767,141.357727 
	C93.571671,140.894135 92.018700,139.000015 91.718102,137.523453 
	C90.901794,133.513748 90.717735,129.375336 90.292252,125.374611 
	C83.512077,125.374611 77.252968,125.374611 70.583252,125.374611 
	C71.407013,134.481430 72.366409,143.232742 72.900620,152.009949 
	C73.084961,155.038803 74.067642,156.280273 77.003014,157.057449 
	C89.046867,160.246185 101.013176,163.727859 113.054733,168.025269 
	C113.054688,173.351501 113.184875,178.681976 113.011475,184.002563 
	C112.883438,187.931274 114.574181,188.475983 117.939850,187.523087 
	C131.995911,183.543411 146.038193,179.494308 160.196091,175.907043 
	C164.717422,174.761429 165.763611,172.262100 165.992584,168.205841 
	C166.553146,158.276169 167.311813,148.355148 168.154236,138.444534 
	C169.360794,124.249535 170.677017,110.063507 172.015991,95.880211 
	C172.856232,86.979950 173.897003,78.098442 174.714188,69.196243 
	C175.547424,60.119049 176.192230,51.024696 176.973907,41.942535 
	C177.201920,39.293312 176.451309,37.959812 173.460190,37.973015 
	C154.485825,38.056767 135.510834,38.043335 116.536293,37.983677 
	C113.952606,37.975555 112.971283,38.970303 113.025330,41.524094 
	C113.120369,46.015373 113.016556,50.510864 112.600677,55.198689 
	C112.347748,55.364159 112.157593,55.583946 111.342789,56.007332 
z"/>
<path fill="#FDFEFE" opacity="1.000000" stroke="none" 
	d="
M112.835129,146.573242 
	C112.835129,146.573242 112.968384,146.333252 113.452835,146.288971 
	C120.049759,144.668182 126.198807,143.214310 132.243973,141.412018 
	C133.457764,141.050140 134.991867,139.462769 135.157257,138.270981 
	C136.002380,132.180984 136.402359,126.030670 137.051498,119.911377 
	C137.366989,116.937294 136.272186,115.557701 133.186844,115.621826 
	C126.528412,115.760223 119.867287,115.768585 113.207260,115.830147 
	C113.207260,115.830147 113.236740,115.698517 113.218582,115.447433 
	C113.200432,115.196342 113.051025,114.857155 113.036209,114.398148 
	C113.026787,107.993446 113.032181,102.047768 113.037582,96.102081 
	C113.037582,96.102081 112.933983,96.001122 113.287827,95.994797 
	C114.098251,95.935005 114.554840,95.881546 115.475174,95.894455 
	C122.512405,95.970634 129.090698,95.834801 135.657364,96.051834 
	C138.932007,96.160049 139.719833,94.802658 139.273407,91.579926 
	C139.930969,86.327049 140.431442,81.447701 140.978531,76.113937 
	C131.370743,76.113937 122.169731,76.113937 112.968712,76.113937 
	C112.968712,76.113937 112.953354,75.955109 112.995316,75.438965 
	C113.024139,69.282478 113.011002,63.642132 113.003662,57.771095 
	C113.009468,57.540401 113.024551,57.079117 113.050980,56.896210 
	C113.077408,56.713303 113.081345,56.343712 113.449646,56.278137 
	C114.558052,56.112534 115.298157,56.012505 116.499535,55.983795 
	C131.972672,56.039001 146.984528,56.022881 162.084625,56.461708 
	C161.138397,68.816895 160.088364,80.715790 159.072891,92.617645 
	C157.352264,112.784035 155.727509,132.959381 153.797394,153.105576 
	C153.651596,154.627487 151.654419,156.690964 150.080734,157.232605 
	C143.294662,159.568253 136.385117,161.580200 129.441513,163.410233 
	C125.067932,164.562927 120.554550,165.185181 115.687820,166.001251 
	C114.517700,164.589432 113.198845,163.256943 113.111038,161.847778 
	C112.794670,156.770248 112.893272,151.666855 112.835129,146.573242 
z"/>
<path fill="#30A8DC" opacity="1.000000" stroke="none" 
	d="
M116.103882,166.045395 
	C120.554550,165.185181 125.067932,164.562927 129.441513,163.410233 
	C136.385117,161.580200 143.294662,159.568253 150.080734,157.232605 
	C151.654419,156.690964 153.651596,154.627487 153.797394,153.105576 
	C155.727509,132.959381 157.352264,112.784035 159.072891,92.617645 
	C160.088364,80.715790 161.138397,68.816895 161.779297,56.178482 
	C146.688385,55.344612 131.991119,55.242607 117.293655,55.185417 
	C116.876129,55.183792 116.456764,55.659393 116.038261,55.912468 
	C115.298157,56.012505 114.558052,56.112534 113.430847,56.156570 
	C113.043747,56.100571 113.036079,55.854771 113.037491,55.641685 
	C113.038895,55.428604 112.996017,55.004589 112.996017,55.004589 
	C113.016556,50.510864 113.120369,46.015373 113.025330,41.524094 
	C112.971283,38.970303 113.952606,37.975555 116.536293,37.983677 
	C135.510834,38.043335 154.485825,38.056767 173.460190,37.973015 
	C176.451309,37.959812 177.201920,39.293312 176.973907,41.942535 
	C176.192230,51.024696 175.547424,60.119049 174.714188,69.196243 
	C173.897003,78.098442 172.856232,86.979950 172.015991,95.880211 
	C170.677017,110.063507 169.360794,124.249535 168.154236,138.444534 
	C167.311813,148.355148 166.553146,158.276169 165.992584,168.205841 
	C165.763611,172.262100 164.717422,174.761429 160.196091,175.907043 
	C146.038193,179.494308 131.995911,183.543411 117.939850,187.523087 
	C114.574181,188.475983 112.883438,187.931274 113.011475,184.002563 
	C113.184875,178.681976 113.054688,173.351501 113.360886,167.500946 
	C114.479317,166.666214 115.291595,166.355804 116.103882,166.045395 
z"/>
<path fill="#E9ECEE" opacity="1.000000" stroke="none" 
	d="
M115.687820,166.001251 
	C115.291595,166.355804 114.479317,166.666214 113.337524,167.039185 
	C101.013176,163.727859 89.046867,160.246185 77.003014,157.057449 
	C74.067642,156.280273 73.084961,155.038803 72.900620,152.009949 
	C72.366409,143.232742 71.407013,134.481430 70.583252,125.374611 
	C77.252968,125.374611 83.512077,125.374611 90.292252,125.374611 
	C90.717735,129.375336 90.901794,133.513748 91.718102,137.523453 
	C92.018700,139.000015 93.571671,140.894135 94.965767,141.357727 
	C100.632233,143.242004 106.458748,144.644958 112.530685,146.399307 
	C112.893272,151.666855 112.794670,156.770248 113.111038,161.847778 
	C113.198845,163.256943 114.517700,164.589432 115.687820,166.001251 
z"/>
<path fill="#EBEDEF" opacity="1.000000" stroke="none" 
	d="
M112.997864,58.001785 
	C113.011002,63.642132 113.024139,69.282478 113.048943,75.379898 
	C97.600166,75.836975 82.139717,75.836975 66.233696,75.836975 
	C65.733803,70.073654 65.249748,64.492950 65.310791,58.460129 
	C81.569878,58.005936 97.283867,58.003860 112.997864,58.001785 
z"/>
<path fill="#31A8DC" opacity="1.000000" stroke="none" 
	d="
M113.167076,116.309174 
	C119.867287,115.768585 126.528412,115.760223 133.186844,115.621826 
	C136.272186,115.557701 137.366989,116.937294 137.051498,119.911377 
	C136.402359,126.030670 136.002380,132.180984 135.157257,138.270981 
	C134.991867,139.462769 133.457764,141.050140 132.243973,141.412018 
	C126.198807,143.214310 120.049759,144.668182 113.539528,146.182556 
	C113.136810,136.343002 113.131851,126.565605 113.167076,116.309174 
z"/>
<path fill="#30A8DC" opacity="1.000000" stroke="none" 
	d="
M115.011429,95.828094 
	C114.554840,95.881546 114.098251,95.935005 113.302429,95.923965 
	C112.982658,89.584290 113.002129,83.309120 112.995155,76.573944 
	C122.169731,76.113937 131.370743,76.113937 140.978531,76.113937 
	C140.431442,81.447701 139.930969,86.327049 138.951279,91.813591 
	C136.821945,92.947197 135.188171,93.856140 133.518585,93.927528 
	C128.710434,94.133102 123.881859,93.867821 119.074707,94.084648 
	C117.696877,94.146797 116.364601,95.219009 115.011429,95.828094 
z"/>
<path fill="#EBEDEF" opacity="1.000000" stroke="none" 
	d="
M112.570831,96.037361 
	C113.032181,102.047768 113.026787,107.993446 112.829620,114.474777 
	C112.337463,115.085159 112.105629,115.254005 111.942352,115.516945 
	C105.539299,115.532722 99.136238,115.548500 92.592377,115.132812 
	C92.545204,114.373764 92.411781,114.145653 92.051300,114.017014 
	C91.913979,113.362885 91.776657,112.708763 91.831894,111.602066 
	C91.917870,111.172356 91.811287,111.195221 91.704697,111.218079 
	C91.372910,108.159134 91.041115,105.100182 91.001785,101.362411 
	C91.524406,99.161873 91.754562,97.640152 91.984726,96.118431 
	C98.691177,96.069832 105.397621,96.021240 112.570831,96.037361 
z"/>
<path fill="#F9F6F3" opacity="1.000000" stroke="none" 
	d="
M113.003662,57.771095 
	C97.283867,58.003860 81.569878,58.005936 65.380615,58.008472 
	C64.835014,57.829170 64.764671,57.649410 65.074295,57.200672 
	C65.983231,56.719063 66.512184,56.506439 67.041145,56.293812 
	C81.041603,56.264687 95.042068,56.235558 109.759598,56.450932 
	C111.325958,56.823326 112.175255,56.951221 113.024551,57.079117 
	C113.024551,57.079117 113.009468,57.540401 113.003662,57.771095 
z"/>
<path fill="#FDFEFE" opacity="1.000000" stroke="none" 
	d="
M91.603653,96.069725 
	C91.754562,97.640152 91.524406,99.161873 90.993210,100.928764 
	C90.868980,99.456299 91.045784,97.738655 91.603653,96.069725 
z"/>
<path fill="#C3CEDC" opacity="1.000000" stroke="none" 
	d="
M113.050980,56.896210 
	C112.175255,56.951221 111.325958,56.823326 110.224380,56.494537 
	C110.428993,56.198204 110.885895,56.102768 111.938110,55.974960 
	C112.700989,55.913315 112.868530,55.884041 113.036079,55.854771 
	C113.036079,55.854771 113.043747,56.100571 113.062546,56.222141 
	C113.081345,56.343712 113.077408,56.713303 113.050980,56.896210 
z"/>
<path fill="#C3CEDC" opacity="1.000000" stroke="none" 
	d="
M66.727661,56.195503 
	C66.512184,56.506439 65.983231,56.719063 65.159027,56.923798 
	C65.380577,56.642998 65.897369,56.370094 66.727661,56.195503 
z"/>
<path fill="#006AB5" opacity="1.000000" stroke="none" 
	d="
M113.037491,55.641685 
	C112.868530,55.884041 112.700989,55.913315 112.281830,55.900322 
	C112.157593,55.583946 112.347748,55.364159 112.798347,55.101639 
	C112.996017,55.004589 113.038895,55.428604 113.037491,55.641685 
z"/>
<path fill="#9FC8E3" opacity="1.000000" stroke="none" 
	d="
M112.255768,115.605278 
	C112.105629,115.254005 112.337463,115.085159 112.844437,114.933792 
	C113.051025,114.857155 113.200432,115.196342 113.204193,115.381538 
	C112.995026,115.609024 112.782104,115.651321 112.255768,115.605278 
z"/>
<path fill="#FDFEFE" opacity="1.000000" stroke="none" 
	d="
M92.022446,114.261673 
	C92.411781,114.145653 92.545204,114.373764 92.347733,114.816025 
	C92.243896,114.930710 91.993591,114.506325 92.022446,114.261673 
z"/>
<path fill="#26A5DB" opacity="1.000000" stroke="none" 
	d="
M115.475174,95.894455 
	C116.364601,95.219009 117.696877,94.146797 119.074707,94.084648 
	C123.881859,93.867821 128.710434,94.133102 133.518585,93.927528 
	C135.188171,93.856140 136.821945,92.947197 138.794189,92.187126 
	C139.719833,94.802658 138.932007,96.160049 135.657364,96.051834 
	C129.090698,95.834801 122.512405,95.970634 115.475174,95.894455 
z"/>
<path fill="#0EA1DA" opacity="1.000000" stroke="none" 
	d="
M116.499535,55.983795 
	C116.456764,55.659393 116.876129,55.183792 117.293655,55.185417 
	C131.991119,55.242607 146.688385,55.344612 161.691040,55.723526 
	C146.984528,56.022881 131.972672,56.039001 116.499535,55.983795 
z"/>
<path fill="#FDFEFE" opacity="1.000000" stroke="none" 
	d="
M91.761658,111.246918 
	C91.811287,111.195221 91.917870,111.172356 91.919098,111.276413 
	C91.813736,111.403336 91.818611,111.275749 91.761658,111.246918 
z"/>
</svg>