<svg version="1.1" id="Layer_1" xmlns="http://www.w3.org/2000/svg" xmlns:xlink="http://www.w3.org/1999/xlink" x="0px" y="0px"
	 width="100%" viewBox="0 0 225 225" enable-background="new 0 0 225 225" xml:space="preserve">
<path fill="#FFFEFE" opacity="1.000000" stroke="none" 
	d="
M114.993103,225.553772 
	C78.375252,226.000000 41.750355,225.956375 5.126004,226.077637 
	C1.983071,226.088028 0.881293,225.821976 0.888899,222.134659 
	C1.038278,149.717850 1.037265,77.300575 0.890787,4.883750 
	C0.883405,1.234236 1.920274,0.864913 5.108661,0.915038 
	C18.090572,1.119128 31.077564,1.000000 44.531342,1.000000 
	C44.564682,6.916726 44.232861,12.836568 44.404743,18.774078 
	C44.438313,19.933672 44.360123,21.099144 44.462646,22.254095 
	C44.655071,24.421904 44.723011,26.850460 47.636520,27.066492 
	C50.140629,27.252172 51.099403,25.310204 51.463795,23.267246 
	C52.074493,19.843348 54.109898,18.600245 57.404167,18.628548 
	C60.590801,18.655926 62.889313,19.542192 63.407379,23.131184 
	C63.667339,24.932095 64.119736,27.039959 66.508194,26.955784 
	C69.182190,26.861547 69.479752,24.566233 69.487206,22.573856 
	C69.513153,15.628128 70.170883,8.652276 68.872131,1.378505 
	C73.356903,1.000000 77.713799,1.000000 82.535355,1.000000 
	C82.315460,5.339235 82.671005,8.808064 88.385368,9.091371 
	C90.858315,9.213973 91.150146,11.573668 91.268967,13.630594 
	C91.459473,16.928501 91.010666,20.261103 91.564903,23.527802 
	C92.167336,27.078575 93.446472,27.536215 97.139717,25.425690 
	C99.983582,20.746578 97.797638,15.812451 99.103119,10.916969 
	C99.837486,9.390197 100.971222,9.158815 102.116058,8.878905 
	C107.991676,7.442342 108.096146,7.222125 105.900421,1.336414 
	C110.356903,1.000000 114.713799,1.000000 119.535355,1.000000 
	C119.215820,7.246978 119.289566,13.524533 119.331154,19.800859 
	C119.339958,21.130711 119.308960,22.467178 119.580353,23.776459 
	C119.940109,25.511948 120.685005,26.989315 122.688293,27.157335 
	C124.390381,27.300095 125.393356,26.283983 126.189194,24.855669 
	C128.757309,20.246649 128.786346,20.262835 132.352310,24.219786 
	C136.162262,28.447491 137.715195,28.359478 141.847595,23.681662 
	C145.189789,19.898346 145.371353,19.895376 147.616653,24.396143 
	C148.413300,25.993059 149.323517,27.320013 151.295563,27.188805 
	C153.316925,27.054314 154.343018,25.566763 154.364212,23.834618 
	C154.454803,16.429914 156.060577,8.898601 152.909393,1.362102 
	C157.689255,1.000000 162.378510,1.000000 167.533875,1.000000 
	C165.791687,7.737702 166.323395,14.692708 166.500122,21.592566 
	C166.622467,26.368944 167.808304,27.444349 172.499695,27.550724 
	C175.975082,27.629528 179.467896,27.812769 182.930618,27.374624 
	C184.662735,27.155458 186.308929,26.401817 186.327957,24.381872 
	C186.348206,22.233971 184.511002,21.898197 182.847763,21.574854 
	C182.193375,21.447632 183.013885,21.611622 182.353683,21.518988 
	C172.716949,20.166832 172.654388,20.167027 172.623550,10.127764 
	C172.614807,7.278383 171.865402,4.555465 171.852966,1.374166 
	C188.980606,1.000000 205.961502,1.046579 222.941513,0.946098 
	C225.290375,0.932198 226.077148,1.285839 226.073792,3.935086 
	C225.981644,77.018196 225.974686,150.101486 226.091629,223.184509 
	C226.096344,226.135590 224.887177,226.027420 222.822159,226.025238 
	C189.193909,225.989609 155.565613,226.000000 121.468658,226.000000 
	C121.234100,223.129211 123.725548,222.954910 125.645020,222.277161 
	C140.099075,217.173584 154.595520,212.165878 169.273346,207.767380 
	C175.323654,205.954285 177.910309,202.648422 178.399429,196.501129 
	C180.802765,166.296799 183.904953,136.153442 186.690567,105.982445 
	C188.159775,90.069321 189.408554,74.131561 191.235474,58.251030 
	C192.077347,50.933113 190.914093,49.514561 183.714951,49.509640 
	C136.886047,49.477642 90.057098,49.479740 43.228180,49.508492 
	C36.192184,49.512814 35.035332,50.877270 35.719925,57.802021 
	C39.176121,92.761803 42.321636,127.750870 45.627300,162.724808 
	C46.676903,173.829605 47.725624,184.932968 48.651909,196.048981 
	C49.361481,204.564301 49.958706,205.149155 58.403206,207.558411 
	C74.909096,212.267593 91.424530,216.943756 107.907303,221.733124 
	C110.427254,222.465363 113.182793,222.821518 114.993103,225.553772 
z"/>
<path fill="#FF5823" opacity="1.000000" stroke="none" 
	d="
M115.428467,226.000000 
	C105.994766,221.677856 96.116119,220.139786 86.679832,217.193680 
	C75.578751,213.727798 64.344849,210.673325 53.110794,207.655441 
	C49.456421,206.673752 48.060829,204.670288 47.730171,200.983597 
	C45.218369,172.978378 42.563255,144.985916 39.920654,116.992523 
	C38.091076,97.611641 36.207161,78.235893 34.357323,58.856918 
	C34.167534,56.868717 33.942715,54.875530 33.915047,52.882145 
	C33.873753,49.907246 35.455986,48.239285 38.409290,47.963192 
	C39.565666,47.855087 40.738903,47.918667 41.904461,47.918633 
	C89.699600,47.917179 137.494736,47.914913 185.289871,47.920055 
	C192.496964,47.920830 193.597946,48.989891 192.934235,56.051132 
	C189.431152,93.320946 185.858398,130.584198 182.319260,167.850632 
	C181.281281,178.780273 180.091034,189.700348 179.345596,200.650360 
	C179.057831,204.877563 177.119781,206.764465 173.341125,207.999954 
	C155.967300,213.680542 138.654327,219.547272 121.159767,225.673615 
	C119.285645,226.000000 117.571281,226.000000 115.428467,226.000000 
z"/>
<path fill="#3C4B53" opacity="1.000000" stroke="none" 
	d="
M152.600006,1.000000 
	C155.036194,2.712848 155.875076,4.862236 155.810349,7.551604 
	C155.690567,12.529105 155.748886,17.511745 155.785645,22.491858 
	C155.809708,25.752266 155.185562,28.774525 151.285645,28.968147 
	C147.442703,29.158941 146.253708,26.448845 146.211563,23.038610 
	C146.204254,22.448595 146.054230,21.860346 145.944504,21.091869 
	C136.696396,30.571066 136.696396,30.571066 128.512512,21.503300 
	C128.297104,21.651331 127.900795,21.784342 127.882965,21.956533 
	C127.534470,25.323124 127.393875,29.196648 122.742081,28.945168 
	C117.901138,28.683456 118.026619,24.733210 118.060593,21.127041 
	C118.102821,16.645092 118.140266,12.160920 118.041885,7.680737 
	C117.991943,5.406663 118.422531,3.408587 120.048615,1.394165 
	C121.388893,1.000000 122.777779,1.000000 124.583336,1.000000 
	C128.379044,2.448864 130.130005,5.525517 132.178162,8.272933 
	C137.356323,15.218898 136.597412,15.189985 141.716843,8.449665 
	C143.675919,5.870321 145.118484,2.720534 148.726776,1.217179 
	C150.066666,1.000000 151.133347,1.000000 152.600006,1.000000 
z"/>
<path fill="#3D4D55" opacity="1.000000" stroke="none" 
	d="
M68.583336,1.000000 
	C70.586876,2.981778 71.436920,5.122797 71.347221,7.781694 
	C71.168159,13.089581 71.287781,18.407402 71.275009,23.721098 
	C71.267563,26.823048 69.914024,29.006702 66.649811,28.998188 
	C63.443779,28.989824 61.715019,26.894144 62.032551,23.776648 
	C62.389698,20.270185 60.844395,19.577211 57.778934,19.774662 
	C54.978214,19.955063 52.047813,19.165541 52.509861,23.833208 
	C52.803261,26.797190 51.110447,29.074078 47.804192,28.990644 
	C44.551838,28.908569 43.198696,26.723131 43.182781,23.654037 
	C43.153507,18.008293 43.212017,12.361870 43.150551,6.716638 
	C43.129208,4.756189 43.783306,3.161087 45.055370,1.392573 
	C46.388889,1.000000 47.777779,1.000000 49.583336,1.000000 
	C52.244942,2.061124 53.469872,3.907137 54.117180,6.239423 
	C54.646751,8.147495 56.043751,8.741006 57.903427,8.628338 
	C59.720192,8.518269 60.493374,7.431785 60.738075,5.787024 
	C61.012920,3.939620 61.492264,2.219437 63.724380,1.207414 
	C65.388893,1.000000 66.777779,1.000000 68.583336,1.000000 
z"/>
<path fill="#394951" opacity="1.000000" stroke="none" 
	d="
M98.285263,26.266472 
	C97.469574,29.145386 95.542732,29.304567 93.532990,28.857779 
	C91.325165,28.366951 90.233208,26.669802 90.144646,24.534027 
	C90.001381,21.078749 89.918991,17.604708 90.119080,14.156473 
	C90.285103,11.295273 89.639542,9.757921 86.381622,10.182369 
	C84.350105,10.447041 82.313309,10.046750 81.355057,7.904485 
	C80.302177,5.550683 80.725021,3.406793 82.908333,1.363761 
	C90.354256,1.000000 97.708504,1.000000 105.531380,1.000000 
	C107.666969,2.745388 109.803528,4.315784 108.581596,7.234787 
	C107.097137,10.780920 103.958092,10.237261 100.633987,10.143585 
	C98.211891,11.932528 99.206566,14.374170 99.016945,16.572807 
	C98.751450,19.651125 99.493210,22.806849 98.285263,26.266472 
z"/>
<path fill="#3A4A51" opacity="1.000000" stroke="none" 
	d="
M171.600006,1.000000 
	C175.958939,5.015053 174.445724,10.102589 174.315170,14.724380 
	C174.196716,18.916964 175.413528,20.244448 179.573196,19.925320 
	C183.195053,19.647453 188.285416,18.650774 188.344040,24.354448 
	C188.401901,29.981964 183.446686,29.040190 179.698334,29.082651 
	C176.534744,29.118490 173.369980,29.108925 170.206360,29.070053 
	C166.995209,29.030598 165.167816,27.296589 165.095383,24.160662 
	C164.956970,18.168762 165.055176,12.171567 165.036789,6.176628 
	C165.030640,4.171108 165.903000,2.674122 167.770996,1.290090 
	C169.066666,1.000000 170.133347,1.000000 171.600006,1.000000 
z"/>
<path fill="#F9F9F9" opacity="1.000000" stroke="none" 
	d="
M148.531372,0.999999 
	C146.343613,4.390663 143.653152,7.755312 141.038666,11.177977 
	C136.932816,16.552965 136.991318,16.541359 133.019165,11.350806 
	C130.498062,8.056402 127.847603,4.860993 125.127579,1.310596 
	C132.687576,1.000000 140.375168,1.000000 148.531372,0.999999 
z"/>
<path fill="#F9FAFA" opacity="1.000000" stroke="none" 
	d="
M63.535347,1.000000 
	C63.816345,2.660561 62.175880,3.541074 61.949440,5.315145 
	C61.375874,9.808753 58.830685,11.218491 54.363827,10.254999 
	C52.411907,9.833975 52.624359,8.597128 52.616978,7.330925 
	C52.604076,5.116698 52.344063,3.038291 50.159348,1.327391 
	C54.356899,1.000000 58.713799,1.000000 63.535347,1.000000 
z"/>
<path fill="#2F414A" opacity="1.000000" stroke="none" 
	d="
M98.606895,26.467136 
	C98.180428,22.139420 98.077110,17.562286 98.010330,12.984621 
	C97.993729,11.846865 97.944359,10.631705 99.811218,10.132694 
	C98.087090,15.315076 100.284302,20.906616 98.606895,26.467136 
z"/>
<path fill="#FAF5F4" opacity="1.000000" stroke="none" 
	d="
M161.596619,84.964951 
	C166.354492,89.218079 166.281464,91.364426 161.303482,94.856873 
	C159.257767,95.895798 157.401550,95.460121 155.609283,95.462570 
	C131.406174,95.495705 107.202995,95.471680 82.999916,95.511879 
	C81.229042,95.514824 79.341141,94.958298 77.425079,96.549896 
	C78.087303,104.711830 79.143623,112.457138 79.889900,120.232193 
	C80.236046,123.838455 82.721756,122.844345 84.652832,122.849022 
	C105.645363,122.899849 126.638054,122.875771 147.630707,122.883514 
	C155.342667,122.886360 156.203857,124.044418 155.373291,131.737991 
	C153.890640,145.471786 152.501785,159.217987 151.311310,172.979553 
	C150.985825,176.742081 149.237122,178.613739 145.830658,179.697693 
	C137.590271,182.319778 129.392014,185.076935 121.206306,187.866318 
	C119.220909,188.542877 117.381454,188.558960 115.372749,187.973770 
	C105.793068,185.183029 96.214127,182.380615 86.573578,179.812668 
	C82.918701,178.839127 80.897301,176.897827 80.115196,173.172852 
	C79.022713,167.969650 77.558830,162.844879 76.275482,157.681152 
	C75.546974,154.749954 76.107109,152.164062 79.225212,151.196487 
	C82.597328,150.150131 84.662292,151.990601 85.513680,155.180283 
	C86.542557,159.034958 87.611549,162.895889 88.306480,166.817322 
	C88.854401,169.909119 90.561852,171.227844 93.448753,171.893173 
	C97.656670,172.862930 102.115227,173.509048 105.898033,175.419556 
	C118.394722,181.731049 129.056839,174.622681 140.284790,171.418564 
	C142.236298,170.861664 142.013321,169.256851 142.155182,167.795593 
	C143.216827,156.860794 144.284348,145.926590 145.323364,134.540970 
	C144.881577,133.839020 144.511246,133.533325 144.015671,132.857300 
	C123.085068,132.442932 102.318565,132.339157 81.551941,132.264984 
	C72.005280,132.230881 71.898209,132.271515 70.663338,123.046577 
	C69.275818,112.681374 68.147881,102.281647 66.815849,91.908638 
	C66.464386,89.171608 66.834358,86.943291 69.812019,85.431282 
	C70.810738,84.295700 71.864708,84.522507 72.835899,84.523987 
	C102.309959,84.568787 131.784225,84.402794 161.596619,84.964951 
z"/>
<path fill="#FF4F0C" opacity="1.000000" stroke="none" 
	d="
M161.715210,84.964218 
	C131.613571,85.289833 101.292030,85.249802 70.504471,85.198456 
	C71.018219,83.552055 72.648880,84.016777 74.072403,84.015663 
	C102.097534,83.993729 130.122696,83.997353 158.147858,84.007126 
	C159.288742,84.007523 160.485992,83.803795 161.715210,84.964218 
z"/>
<path fill="#FF4A00" opacity="1.000000" stroke="none" 
	d="
M77.527374,96.781914 
	C77.046890,93.087502 80.058281,95.004135 81.433716,94.992508 
	C99.845238,94.836838 118.258507,94.886360 136.671341,94.889282 
	C144.467712,94.890511 152.264084,94.902016 160.525345,94.967278 
	C159.341888,96.728584 157.227081,95.960762 155.332489,95.965126 
	C131.473099,96.020111 107.613518,95.991051 83.754044,96.020081 
	C81.795517,96.022461 79.764633,95.591599 77.527374,96.781914 
z"/>
<path fill="#FF5219" opacity="1.000000" stroke="none" 
	d="
M144.005035,132.868683 
	C144.341888,132.762360 144.832138,132.990112 145.309540,133.653809 
	C144.917267,133.794098 144.537842,133.498428 144.005035,132.868683 
z"/>
</svg>