<svg version="1.1" id="Layer_1" xmlns="http://www.w3.org/2000/svg" xmlns:xlink="http://www.w3.org/1999/xlink" x="0px" y="0px"
	 width="100%" viewBox="0 0 189 267" enable-background="new 0 0 189 267" xml:space="preserve">
<path fill="#E6A32A" opacity="1.000000" stroke="none" 
	d="
M1.000000,35.000000 
	C1.000000,32.629440 1.000000,30.258884 1.466725,27.489956 
	C12.575812,27.096691 23.218182,27.111746 33.860538,27.105221 
	C85.907028,27.073305 137.953506,27.035635 190.000000,27.000000 
	C190.000000,29.370558 190.000000,31.741114 189.645508,34.772408 
	C187.700073,52.327442 186.091080,69.220062 184.522552,86.116447 
	C182.323090,109.809608 180.160172,133.506165 177.969574,157.200150 
	C176.161758,176.753891 174.274689,196.300674 172.581421,215.864273 
	C172.308167,219.021393 171.027252,220.292328 168.014526,221.131042 
	C145.444839,227.414246 122.956596,233.990875 100.370270,240.212143 
	C97.374298,241.037354 93.768471,241.106979 90.785545,240.287384 
	C69.316727,234.388550 47.938412,228.160675 26.525623,222.057404 
	C18.534960,219.779816 18.727276,219.786896 18.001677,211.561539 
	C15.881364,187.525909 13.571495,163.507034 11.364946,139.478943 
	C8.869316,112.302933 6.464664,85.118378 3.889406,57.949966 
	C3.162154,50.277618 1.975793,42.648788 1.000000,35.000000 
M90.433563,190.285797 
	C90.621552,188.983902 90.972588,187.682159 90.973732,186.380112 
	C91.004044,151.850342 91.011444,117.320549 90.956711,82.790863 
	C90.954178,81.195480 90.339424,79.601067 89.675201,77.675522 
	C89.453117,77.454079 89.229713,77.233971 88.298775,76.583969 
	C81.201355,76.717636 74.103943,76.851295 66.218063,77.253021 
	C65.805038,79.055321 65.040039,80.855995 65.031670,82.660172 
	C64.901276,110.779655 64.868706,138.899597 64.046150,167.010223 
	C62.364304,167.339432 60.682457,167.668655 58.076199,168.166412 
	C49.727551,168.142197 41.378899,168.117966 32.781708,167.939362 
	C32.493778,167.831985 32.224712,167.879608 31.295959,168.462814 
	C31.195921,176.303970 31.095882,184.145126 31.702349,192.416763 
	C32.667706,192.605240 33.632698,192.955902 34.598476,192.958069 
	C51.312157,192.995773 68.026031,193.015060 84.739525,192.951065 
	C86.162277,192.945618 87.582664,192.322464 89.340210,191.656281 
	C89.563263,191.435272 89.786461,191.214401 90.433563,190.285797 
M169.839584,80.182083 
	C170.799744,69.425789 171.630310,58.655525 172.787292,47.920444 
	C173.217133,43.932274 171.549393,42.971222 168.025055,42.981377 
	C145.529037,43.046192 123.032501,43.070312 100.536781,42.966007 
	C96.400238,42.946827 94.985184,44.647411 94.989799,48.650833 
	C95.055130,105.307869 95.019142,161.965027 95.058891,218.622101 
	C95.063072,224.586517 96.299530,225.550797 101.921677,223.980133 
	C119.240311,219.141891 136.507523,214.119019 153.838226,209.325211 
	C156.740311,208.522476 157.838623,207.095673 158.081863,204.147141 
	C159.024338,192.722061 160.219727,181.318069 161.284515,169.902817 
	C162.873688,152.865845 164.406357,135.823578 166.012085,118.788177 
	C167.196899,106.218483 168.459946,93.656166 169.839584,80.182083 
z"/>
<path fill="#FFFEFE" opacity="1.000000" stroke="none" 
	d="
M1.000000,35.468658 
	C1.975793,42.648788 3.162154,50.277618 3.889406,57.949966 
	C6.464664,85.118378 8.869316,112.302933 11.364946,139.478943 
	C13.571495,163.507034 15.881364,187.525909 18.001677,211.561539 
	C18.727276,219.786896 18.534960,219.779816 26.525623,222.057404 
	C47.938412,228.160675 69.316727,234.388550 90.785545,240.287384 
	C93.768471,241.106979 97.374298,241.037354 100.370270,240.212143 
	C122.956596,233.990875 145.444839,227.414246 168.014526,221.131042 
	C171.027252,220.292328 172.308167,219.021393 172.581421,215.864273 
	C174.274689,196.300674 176.161758,176.753891 177.969574,157.200150 
	C180.160172,133.506165 182.323090,109.809608 184.522552,86.116447 
	C186.091080,69.220062 187.700073,52.327442 189.645508,35.216568 
	C190.000000,112.614777 190.000000,190.229553 190.000000,267.922180 
	C127.094070,267.922180 64.188019,267.922180 1.000000,267.922180 
	C1.000000,190.645996 1.000000,113.291656 1.000000,35.468658 
z"/>
<path fill="#FFFFFF" opacity="1.000000" stroke="none" 
	d="
M190.000000,26.531334 
	C137.953506,27.035635 85.907028,27.073305 33.860538,27.105221 
	C23.218182,27.111746 12.575812,27.096691 1.466725,27.045792 
	C1.000000,18.349092 1.000000,9.698186 1.000007,1.050672 
	C64.000023,1.054065 127.000031,1.054065 190.000000,1.054065 
	C190.000000,9.426310 190.000000,17.744490 190.000000,26.531334 
z"/>
<path fill="#F1BF23" opacity="1.000000" stroke="none" 
	d="
M169.763855,80.636322 
	C168.459946,93.656166 167.196899,106.218483 166.012085,118.788177 
	C164.406357,135.823578 162.873688,152.865845 161.284515,169.902817 
	C160.219727,181.318069 159.024338,192.722061 158.081863,204.147141 
	C157.838623,207.095673 156.740311,208.522476 153.838226,209.325211 
	C136.507523,214.119019 119.240311,219.141891 101.921677,223.980133 
	C96.299530,225.550797 95.063072,224.586517 95.058891,218.622101 
	C95.019142,161.965027 95.055130,105.307869 94.989799,48.650833 
	C94.985184,44.647411 96.400238,42.946827 100.536781,42.966007 
	C123.032501,43.070312 145.529037,43.046192 168.025055,42.981377 
	C171.549393,42.971222 173.217133,43.932274 172.787292,47.920444 
	C171.630310,58.655525 170.799744,69.425789 169.763855,80.636322 
M98.655525,117.639503 
	C98.728668,123.749016 98.801811,129.858536 98.997925,136.879807 
	C98.997925,139.287903 98.997925,141.696014 98.997925,144.348587 
	C114.727020,143.741287 129.661636,143.164673 145.008179,142.572144 
	C144.404053,151.700638 143.816437,160.579483 143.218552,169.613739 
	C127.840935,170.386810 113.116280,171.127045 98.022293,171.885849 
	C98.022293,178.968643 98.022293,185.433929 98.708366,192.360184 
	C99.833336,192.571228 100.957878,192.963379 102.083351,192.966095 
	C118.638161,193.006058 135.193222,193.020554 151.747803,192.947571 
	C153.159927,192.941345 154.569107,192.270752 156.237808,191.135269 
	C157.187653,169.500153 158.137512,147.865021 159.059647,126.861008 
	C147.485428,126.861008 136.721664,126.861008 125.258026,126.477783 
	C124.279877,126.321754 123.269875,125.925133 122.328865,126.049683 
	C117.162231,126.733528 115.579124,124.395737 115.922371,119.465576 
	C116.279488,114.336212 116.225105,109.150154 115.935493,104.012283 
	C115.682541,99.524803 117.184669,97.789345 121.865479,97.914848 
	C132.332611,98.195496 142.813232,98.065262 153.286469,97.941978 
	C155.176117,97.919731 157.056732,97.131073 158.973740,95.904617 
	C159.642059,89.634956 160.310379,83.365303 160.291824,76.635979 
	C159.165588,76.426201 158.039749,76.036201 156.913040,76.033638 
	C139.683365,75.994438 122.453453,75.981087 105.223961,76.051117 
	C103.805611,76.056877 102.389885,76.708992 100.653473,77.811287 
	C100.496918,80.280502 100.281815,82.747627 100.193954,85.219284 
	C99.818062,95.794044 99.479691,106.370140 98.655525,117.639503 
M98.493942,104.474533 
	C98.493942,104.474533 98.505272,104.513649 98.493942,104.474533 
z"/>
<path fill="#EBEAE8" opacity="1.000000" stroke="none" 
	d="
M89.004997,77.015198 
	C89.229713,77.233971 89.453117,77.454079 89.798187,78.307190 
	C89.950706,116.290474 89.980255,153.642090 90.009796,190.993698 
	C89.786461,191.214401 89.563263,191.435272 88.705925,191.767975 
	C69.046371,191.915192 50.021111,191.950729 30.995846,191.986267 
	C31.095882,184.145126 31.195921,176.303970 31.898565,168.330307 
	C32.677532,168.163101 32.853893,168.128418 33.030251,168.093750 
	C41.378899,168.117966 49.727551,168.142197 58.937408,168.148529 
	C61.470268,167.760239 63.141918,167.389832 64.813568,167.019424 
	C64.868706,138.899597 64.901276,110.779655 65.031670,82.660172 
	C65.040039,80.855995 65.805038,79.055321 67.076553,77.183777 
	C74.958366,77.081421 81.981682,77.048309 89.004997,77.015198 
z"/>
<path fill="#E69F0F" opacity="1.000000" stroke="none" 
	d="
M90.221680,190.639740 
	C89.980255,153.642090 89.950706,116.290474 89.965485,78.472534 
	C90.339424,79.601067 90.954178,81.195480 90.956711,82.790863 
	C91.011444,117.320549 91.004044,151.850342 90.973732,186.380112 
	C90.972588,187.682159 90.621552,188.983902 90.221680,190.639740 
z"/>
<path fill="#E69F0F" opacity="1.000000" stroke="none" 
	d="
M31.349096,192.201508 
	C50.021111,191.950729 69.046371,191.915192 88.537895,191.932953 
	C87.582664,192.322464 86.162277,192.945618 84.739525,192.951065 
	C68.026031,193.015060 51.312157,192.995773 34.598476,192.958069 
	C33.632698,192.955902 32.667706,192.605240 31.349096,192.201508 
z"/>
<path fill="#E69F10" opacity="1.000000" stroke="none" 
	d="
M88.651886,76.799583 
	C81.981682,77.048309 74.958366,77.081421 67.470787,77.049744 
	C74.103943,76.851295 81.201355,76.717636 88.651886,76.799583 
z"/>
<path fill="#E5A017" opacity="1.000000" stroke="none" 
	d="
M64.429855,167.014832 
	C63.141918,167.389832 61.470268,167.760239 59.399612,168.064255 
	C60.682457,167.668655 62.364304,167.339432 64.429855,167.014832 
z"/>
<path fill="#E5A017" opacity="1.000000" stroke="none" 
	d="
M32.905979,168.016556 
	C32.853893,168.128418 32.677532,168.163101 32.237839,168.140015 
	C32.224712,167.879608 32.493778,167.831985 32.905979,168.016556 
z"/>
<path fill="#FFFDFA" opacity="1.000000" stroke="none" 
	d="
M160.978714,77.095642 
	C160.310379,83.365303 159.642059,89.634956 158.495483,96.353127 
	C143.766861,96.801636 129.516479,96.801636 115.137436,96.801636 
	C115.137436,107.236954 115.137436,117.080688 115.137436,126.861008 
	C119.012589,126.861008 122.485252,126.861008 125.957909,126.861008 
	C136.721664,126.861008 147.485428,126.861008 159.059647,126.861008 
	C158.137512,147.865021 157.187653,169.500153 155.641693,191.507568 
	C136.037827,191.886322 117.030060,191.892761 98.022293,191.899216 
	C98.022293,185.433929 98.022293,178.968643 98.022293,171.885849 
	C113.116280,171.127045 127.840935,170.386810 143.218552,169.613739 
	C143.816437,160.579483 144.404053,151.700638 145.008179,142.572144 
	C129.661636,143.164673 114.727020,143.741287 98.997925,144.348587 
	C98.997925,141.696014 98.997925,139.287903 99.005295,135.962097 
	C99.050987,129.011505 99.089317,122.978630 99.127647,116.945747 
	C99.479691,106.370140 99.818062,95.794044 100.193954,85.219284 
	C100.281815,82.747627 100.496918,80.280502 101.282928,77.462334 
	C121.601158,77.107468 141.289932,77.101555 160.978714,77.095642 
z"/>
<path fill="#F0BC00" opacity="1.000000" stroke="none" 
	d="
M125.607971,126.669395 
	C122.485252,126.861008 119.012589,126.861008 115.137436,126.861008 
	C115.137436,117.080688 115.137436,107.236954 115.137436,96.801636 
	C129.516479,96.801636 143.766861,96.801636 158.479385,96.748947 
	C157.056732,97.131073 155.176117,97.919731 153.286469,97.941978 
	C142.813232,98.065262 132.332611,98.195496 121.865479,97.914848 
	C117.184669,97.789345 115.682541,99.524803 115.935493,104.012283 
	C116.225105,109.150154 116.279488,114.336212 115.922371,119.465576 
	C115.579124,124.395737 117.162231,126.733528 122.328865,126.049683 
	C123.269875,125.925133 124.279877,126.321754 125.607971,126.669395 
z"/>
<path fill="#F0BC00" opacity="1.000000" stroke="none" 
	d="
M160.635269,76.865814 
	C141.289932,77.101555 121.601158,77.107468 101.442657,77.087082 
	C102.389885,76.708992 103.805611,76.056877 105.223961,76.051117 
	C122.453453,75.981087 139.683365,75.994438 156.913040,76.033638 
	C158.039749,76.036201 159.165588,76.426201 160.635269,76.865814 
z"/>
<path fill="#F0BC00" opacity="1.000000" stroke="none" 
	d="
M98.365326,192.129700 
	C117.030060,191.892761 136.037827,191.886322 155.512634,191.894348 
	C154.569107,192.270752 153.159927,192.941345 151.747803,192.947571 
	C135.193222,193.020554 118.638161,193.006058 102.083351,192.966095 
	C100.957878,192.963379 99.833336,192.571228 98.365326,192.129700 
z"/>
<path fill="#F0BC0A" opacity="1.000000" stroke="none" 
	d="
M98.891586,117.292625 
	C99.089317,122.978630 99.050987,129.011505 98.943802,135.506226 
	C98.801811,129.858536 98.728668,123.749016 98.891586,117.292625 
z"/>
<path fill="#F0BC0A" opacity="1.000000" stroke="none" 
	d="
M98.499603,104.494095 
	C98.505272,104.513649 98.493942,104.474533 98.499603,104.494095 
z"/>
</svg>